<?xml version="1.0" encoding="iso-8859-1"?>
<!-- Generator: Adobe Illustrator 19.0.0, SVG Export Plug-In . SVG Version: 6.00 Build 0)  -->
<svg version="1.1" id="Capa_1" xmlns="http://www.w3.org/2000/svg" xmlns:xlink="http://www.w3.org/1999/xlink" x="0px" y="0px"
	 viewBox="0 0 512 512" style="enable-background:new 0 0 512 512;" xml:space="preserve">
<g>
	<g>
		<path d="M462.143,255.661c-0.102-5.436-4.597-9.767-10.031-9.675c-5.436,0.102-9.761,4.577-9.659,10.014
			c0,5.437,4.409,9.846,9.846,9.846c5.437,0,9.846-4.409,9.846-9.846L462.143,255.661z"/>
	</g>
</g>
<g>
	<g>
		<path d="M462.718,104.981l46.398-46.398c2.767-2.767,3.632-6.909,2.206-10.552c-1.426-3.642-4.873-6.096-8.783-6.249
			l-31.102-1.219l-1.219-31.101c-0.153-3.91-2.606-7.357-6.249-8.783c-3.645-1.429-7.785-0.56-10.552,2.206L407.02,49.282
			C363.004,17.017,310.984,0.001,256,0.001c-68.379,0-132.667,26.629-181.019,74.98C26.628,123.332,0,187.621,0,256
			s26.629,132.667,74.98,181.019C123.332,485.372,187.62,512,256,512s132.667-26.629,181.019-74.98
			c48.352-48.351,74.98-112.64,74.98-181.019C511.999,201.016,494.983,148.996,462.718,104.981z M414.881,69.271
			c0.003-0.003,0.006-0.007,0.009-0.01l36.533-36.533l0.694,17.702c0.201,5.136,4.318,9.251,9.453,9.453l17.702,0.694
			l-36.533,36.533c-0.003,0.003-0.007,0.006-0.01,0.009l-2.429,2.429l-26.8-1.05l-1.05-26.799L414.881,69.271z M256,492.307
			C125.699,492.307,19.692,386.301,19.692,256S125.699,19.693,256,19.693c49.948,0,97.251,15.201,137.458,44.064
			c-0.029,0.065-0.048,0.133-0.076,0.199c-0.082,0.194-0.155,0.391-0.225,0.59c-0.049,0.141-0.098,0.28-0.141,0.422
			c-0.062,0.207-0.112,0.417-0.16,0.627c-0.031,0.14-0.067,0.277-0.093,0.417c-0.042,0.231-0.069,0.467-0.095,0.702
			c-0.014,0.123-0.034,0.244-0.043,0.367c-0.026,0.359-0.034,0.722-0.021,1.085l1.406,35.896l-6.133,6.133
			c-0.013,0.013-0.028,0.023-0.04,0.036c-0.013,0.013-0.024,0.027-0.036,0.04l-20.675,20.675
			C337.549,104.631,298.613,88.616,256,88.616c-92.296,0-167.384,75.089-167.384,167.384S163.704,423.385,256,423.385
			S423.384,348.296,423.384,256c0-42.612-16.015-81.549-42.331-111.129l13.566-13.566c24.401,27.049,40.132,60.099,45.666,96.174
			c0.747,4.869,4.942,8.353,9.72,8.353c0.497,0,1-0.037,1.505-0.114c5.375-0.825,9.063-5.851,8.239-11.226
			c-6.129-39.947-23.555-76.533-50.582-106.457l34.663,1.358c0.129,0.005,0.258,0.008,0.386,0.008c0.169,0,0.337-0.017,0.504-0.025
			c0.113-0.006,0.227-0.007,0.339-0.017c0.308-0.027,0.614-0.069,0.918-0.124c0.044-0.008,0.09-0.011,0.133-0.02
			c0.348-0.068,0.69-0.156,1.028-0.261c0.094-0.03,0.184-0.067,0.277-0.099c0.238-0.082,0.475-0.168,0.707-0.269
			c0.039-0.017,0.08-0.028,0.119-0.045c28.864,40.209,44.064,87.511,44.064,137.459C492.307,386.301,386.3,492.307,256,492.307z
			 M249.037,262.963c1.923,1.922,4.443,2.884,6.962,2.884s5.039-0.962,6.962-2.884l48.217-48.216
			c8.628,11.509,13.744,25.795,13.744,41.253c0,38.004-30.919,68.923-68.923,68.923S187.077,294.004,187.077,256
			c0-38.004,30.919-68.923,68.923-68.923c15.458,0,29.744,5.117,41.254,13.744l-48.217,48.217
			C245.192,252.883,245.192,259.118,249.037,262.963z M311.28,186.796c-15.166-12.139-34.389-19.411-55.28-19.411
			c-48.862,0-88.615,39.753-88.615,88.615s39.753,88.615,88.615,88.615s88.615-39.753,88.615-88.615
			c0-20.892-7.271-40.114-19.411-55.28l41.907-41.908c22.763,25.993,36.58,60.006,36.58,97.188
			c0,81.437-66.255,147.692-147.692,147.692S108.307,337.438,108.307,256S174.562,108.308,256,108.308
			c37.183,0,71.195,13.817,97.187,36.579L311.28,186.796z"/>
	</g>
</g>
<g>
</g>
<g>
</g>
<g>
</g>
<g>
</g>
<g>
</g>
<g>
</g>
<g>
</g>
<g>
</g>
<g>
</g>
<g>
</g>
<g>
</g>
<g>
</g>
<g>
</g>
<g>
</g>
<g>
</g>
</svg>
