<?xml version="1.0" encoding="iso-8859-1"?>
<!-- Generator: Adobe Illustrator 19.0.0, SVG Export Plug-In . SVG Version: 6.00 Build 0)  -->
<svg version="1.1" id="Capa_1" xmlns="http://www.w3.org/2000/svg" xmlns:xlink="http://www.w3.org/1999/xlink" x="0px" y="0px"
	 viewBox="0 0 512 512" style="enable-background:new 0 0 512 512;" xml:space="preserve" fill="#3FA9F5">
<g>
	<g>
		<path d="M374.154,0H137.846c-21.717,0-39.385,17.668-39.385,39.385v433.231c0,21.717,17.668,39.385,39.385,39.385h236.308
			c21.717,0,39.385-17.668,39.385-39.385V39.385C413.538,17.668,395.871,0,374.154,0z M393.846,472.615
			c0,10.858-8.834,19.692-19.692,19.692H137.846c-10.858,0-19.692-8.834-19.692-19.692v-29.538h275.692V472.615z M393.846,423.385
			H118.154V88.615h275.692V423.385z M393.846,68.923H118.154V39.385c0-10.858,8.834-19.692,19.692-19.692h236.308
			c10.858,0,19.692,8.834,19.692,19.692V68.923z"/>
	</g>
</g>
<g>
	<g>
		<path d="M354.462,34.462h-19.692c-5.437,0-9.846,4.409-9.846,9.846c0,5.437,4.409,9.846,9.846,9.846h19.692
			c5.437,0,9.846-4.409,9.846-9.846C364.308,38.871,359.899,34.462,354.462,34.462z"/>
	</g>
</g>
<g>
	<g>
		<path d="M256,448c-10.858,0-19.692,8.834-19.692,19.692s8.834,19.692,19.692,19.692c10.858,0,19.692-8.834,19.692-19.692
			S266.858,448,256,448z"/>
	</g>
</g>
<g>
	<g>
		<path d="M364.636,108.308H147.364c-5.437,0-9.846,4.409-9.846,9.846v78.769c0,5.437,4.409,9.846,9.846,9.846h217.271
			c5.437,0,9.846-4.409,9.846-9.846v-78.769C374.482,112.717,370.073,108.308,364.636,108.308z M354.789,187.077H157.211v-19.692
			h39.713c5.437,0,9.846-4.409,9.846-9.846c0-5.437-4.409-9.846-9.846-9.846h-39.713V128h197.579V187.077z"/>
	</g>
</g>
<g>
	<g>
		<path d="M236.308,226.462h-88.943c-5.437,0-9.846,4.409-9.846,9.846v157.538c0,5.437,4.409,9.846,9.846,9.846h88.943
			c5.437,0,9.846-4.409,9.846-9.846V236.308C246.154,230.871,241.745,226.462,236.308,226.462z M226.462,384h-69.251V246.154h69.251
			V384z"/>
	</g>
</g>
<g>
	<g>
		<path d="M364.636,226.462h-88.943c-5.437,0-9.846,4.409-9.846,9.846v157.538c0,5.437,4.409,9.846,9.846,9.846h88.943
			c5.437,0,9.846-4.409,9.846-9.846V236.308C374.482,230.871,370.073,226.462,364.636,226.462z M354.789,384h-69.251V246.154h69.251
			V384z"/>
	</g>
</g>
<g>
	<g>
		<path d="M236.11,155.618c-0.118-0.63-0.315-1.251-0.561-1.841c-0.246-0.601-0.551-1.171-0.906-1.702
			c-0.353-0.543-0.767-1.045-1.221-1.498c-0.453-0.453-0.955-0.866-1.497-1.221c-0.532-0.353-1.103-0.66-1.703-0.906
			c-0.591-0.246-1.21-0.432-1.84-0.56c-1.27-0.257-2.57-0.257-3.84,0c-0.63,0.128-1.25,0.314-1.841,0.56
			c-0.601,0.246-1.171,0.552-1.702,0.906c-0.543,0.354-1.045,0.768-1.498,1.221c-0.453,0.453-0.866,0.955-1.221,1.498
			c-0.364,0.532-0.66,1.102-0.906,1.702c-0.246,0.591-0.443,1.211-0.571,1.841c-0.128,0.63-0.187,1.28-0.187,1.92
			c0,0.639,0.059,1.29,0.186,1.92c0.128,0.63,0.326,1.25,0.572,1.84c0.246,0.601,0.542,1.172,0.906,1.703
			c0.354,0.542,0.768,1.044,1.221,1.497s0.955,0.867,1.498,1.221c0.532,0.354,1.102,0.66,1.702,0.906
			c0.592,0.246,1.211,0.433,1.841,0.561c0.63,0.128,1.28,0.197,1.92,0.197c0.639,0,1.29-0.069,1.92-0.197
			c0.63-0.128,1.25-0.315,1.84-0.561c0.601-0.246,1.172-0.551,1.703-0.906c0.542-0.354,1.044-0.768,1.497-1.221
			c0.454-0.453,0.867-0.955,1.221-1.497c0.354-0.532,0.66-1.103,0.906-1.703c0.246-0.591,0.443-1.21,0.561-1.84
			c0.128-0.631,0.197-1.281,0.197-1.92C236.307,156.898,236.238,156.248,236.11,155.618z"/>
	</g>
</g>
<g>
</g>
<g>
</g>
<g>
</g>
<g>
</g>
<g>
</g>
<g>
</g>
<g>
</g>
<g>
</g>
<g>
</g>
<g>
</g>
<g>
</g>
<g>
</g>
<g>
</g>
<g>
</g>
<g>
</g>
</svg>
