<?xml version="1.0" encoding="iso-8859-1"?>
<!-- Generator: Adobe Illustrator 19.0.0, SVG Export Plug-In . SVG Version: 6.00 Build 0)  -->
<svg version="1.1" id="Capa_1" xmlns="http://www.w3.org/2000/svg" xmlns:xlink="http://www.w3.org/1999/xlink" x="0px" y="0px"
	 viewBox="0 0 512 512" style="enable-background:new 0 0 512 512;" xml:space="preserve">
<g>
	<g>
		<path d="M512,274.462V97.231c0-5.437-4.409-9.846-9.846-9.846H149.857l-2.355-11.777c-0.921-4.603-4.961-7.915-9.655-7.915H39.385
			C17.668,67.692,0,85.36,0,107.077s17.668,39.385,39.385,39.385h43.128l45.679,228.392c0.921,4.603,4.961,7.915,9.655,7.915h19.848
			c-0.802,3.567-1.24,7.271-1.24,11.077c0,27.825,22.636,50.462,50.462,50.462c27.825,0,50.462-22.636,50.462-50.462
			c0-3.805-0.437-7.51-1.24-11.077h109.41c-0.804,3.567-1.242,7.271-1.242,11.077c0,27.825,22.636,50.462,50.462,50.462
			s50.462-22.636,50.462-50.462c0-3.805-0.437-7.51-1.24-11.077h38.163c5.437,0,9.846-4.409,9.846-9.846v-59.046
			c0-5.437-4.409-9.846-9.846-9.846H193.185l-3.944-19.723h312.913C507.591,284.308,512,279.899,512,274.462z M206.915,424.615
			c-16.966,0-30.769-13.803-30.769-30.769c0-6.867,2.263-13.214,6.079-18.339c0.024-0.032,0.047-0.065,0.072-0.097
			c4.635-6.173,11.536-10.546,19.454-11.89c0.24-0.04,0.481-0.083,0.723-0.117c0.289-0.041,0.58-0.077,0.871-0.111
			c0.359-0.041,0.72-0.076,1.081-0.104c0.223-0.018,0.445-0.038,0.669-0.051c0.604-0.034,1.209-0.058,1.82-0.058
			s1.216,0.024,1.819,0.058c0.224,0.013,0.447,0.034,0.67,0.051c0.361,0.029,0.721,0.063,1.079,0.104
			c0.292,0.034,0.584,0.069,0.874,0.111c0.24,0.034,0.479,0.077,0.718,0.116c7.928,1.345,14.836,5.725,19.472,11.909
			c0.013,0.018,0.027,0.035,0.039,0.053c3.828,5.13,6.098,11.487,6.098,18.366C237.684,410.812,223.882,424.615,206.915,424.615z
			 M414.769,424.615c-16.966,0-30.769-13.803-30.769-30.769c0-6.867,2.263-13.214,6.079-18.339c0.024-0.032,0.047-0.065,0.072-0.097
			c4.635-6.173,11.536-10.546,19.455-11.89c0.24-0.04,0.481-0.083,0.723-0.117c0.289-0.041,0.58-0.077,0.871-0.111
			c0.359-0.041,0.72-0.076,1.081-0.104c0.223-0.018,0.445-0.038,0.669-0.051c0.604-0.034,1.209-0.058,1.82-0.058
			s1.216,0.024,1.82,0.058c0.224,0.013,0.446,0.034,0.669,0.051c0.361,0.029,0.723,0.063,1.081,0.104
			c0.291,0.034,0.583,0.069,0.871,0.111c0.242,0.034,0.482,0.077,0.723,0.117c7.919,1.344,14.819,5.718,19.455,11.89
			c0.024,0.032,0.048,0.065,0.072,0.097c3.816,5.125,6.079,11.473,6.079,18.339C445.538,410.812,431.735,424.615,414.769,424.615z
			 M492.308,323.723v39.354h-37.551c-0.254-0.328-0.527-0.639-0.788-0.96c-0.165-0.204-0.331-0.408-0.499-0.609
			c-0.352-0.419-0.71-0.833-1.075-1.24c-0.275-0.308-0.556-0.609-0.839-0.91c-0.288-0.305-0.573-0.612-0.867-0.91
			c-0.555-0.564-1.124-1.114-1.706-1.651c-0.038-0.035-0.074-0.073-0.112-0.107c-7.596-6.977-17.33-11.652-28.093-12.936
			c-0.094-0.012-0.186-0.025-0.28-0.035c-0.799-0.091-1.605-0.161-2.414-0.214c-0.164-0.011-0.327-0.028-0.491-0.037
			c-0.934-0.051-1.876-0.083-2.823-0.083s-1.888,0.032-2.823,0.083c-0.164,0.01-0.327,0.027-0.491,0.037
			c-0.81,0.053-1.616,0.123-2.414,0.214c-0.094,0.011-0.186,0.024-0.28,0.035c-10.763,1.284-20.497,5.958-28.093,12.936
			c-0.038,0.034-0.074,0.072-0.112,0.107c-0.581,0.537-1.15,1.087-1.706,1.651c-0.294,0.297-0.58,0.605-0.867,0.91
			c-0.283,0.301-0.564,0.603-0.839,0.91c-0.365,0.407-0.723,0.82-1.075,1.24c-0.168,0.202-0.334,0.405-0.499,0.609
			c-0.261,0.321-0.534,0.632-0.788,0.96H246.903c-0.254-0.329-0.528-0.64-0.79-0.963c-0.164-0.202-0.328-0.404-0.495-0.604
			c-0.354-0.421-0.713-0.838-1.08-1.247c-0.272-0.304-0.548-0.601-0.827-0.898c-0.291-0.309-0.58-0.62-0.879-0.922
			c-0.545-0.553-1.104-1.093-1.674-1.621c-0.049-0.044-0.096-0.093-0.145-0.138c-7.595-6.974-17.326-11.648-28.086-12.931
			c-0.094-0.012-0.189-0.026-0.284-0.036c-0.799-0.091-1.603-0.161-2.412-0.214c-0.164-0.011-0.328-0.029-0.492-0.038
			c-0.934-0.051-1.876-0.083-2.823-0.083c-0.948,0-1.888,0.032-2.823,0.083c-0.164,0.01-0.327,0.027-0.491,0.037
			c-0.81,0.053-1.616,0.123-2.414,0.214c-0.094,0.011-0.186,0.024-0.28,0.035c-10.766,1.284-20.502,5.961-28.098,12.941
			c-0.024,0.022-0.046,0.045-0.07,0.067c-0.597,0.551-1.181,1.116-1.751,1.695c-0.285,0.288-0.56,0.585-0.839,0.88
			c-0.293,0.312-0.586,0.625-0.871,0.945c-0.355,0.397-0.704,0.8-1.048,1.209c-0.18,0.216-0.358,0.433-0.536,0.653
			c-0.254,0.312-0.519,0.615-0.766,0.934h-21.011L100.24,134.685c-0.921-4.603-4.961-7.915-9.655-7.915h-51.2
			c-10.858,0-19.692-8.834-19.692-19.692s8.834-19.692,19.692-19.692h90.39c0.004,0.018,0,0,0.004,0.018l45.68,228.405
			c0.921,4.603,4.961,7.915,9.655,7.915H492.308z M492.308,264.615H185.303l-3.882-19.41h54.887c5.437,0,9.846-4.409,9.846-9.846
			c0-5.437-4.409-9.846-9.846-9.846h-58.825l-23.688-118.436h338.513V264.615z"/>
	</g>
</g>
<g>
	<g>
		<path d="M275.495,233.147c-0.118-0.62-0.315-1.242-0.561-1.841c-0.246-0.592-0.551-1.162-0.906-1.694
			c-0.353-0.543-0.767-1.045-1.221-1.498c-0.453-0.453-0.955-0.866-1.497-1.221c-0.532-0.354-1.103-0.66-1.703-0.906
			c-0.591-0.246-1.21-0.443-1.84-0.56c-1.27-0.267-2.58-0.257-3.85,0c-0.62,0.117-1.241,0.314-1.841,0.56
			c-0.592,0.246-1.162,0.552-1.694,0.906c-0.543,0.354-1.045,0.768-1.498,1.221c-0.453,0.453-0.866,0.955-1.221,1.498
			c-0.364,0.532-0.66,1.102-0.906,1.694c-0.246,0.6-0.443,1.221-0.571,1.841c-0.128,0.639-0.186,1.29-0.186,1.93
			c0,0.639,0.059,1.29,0.186,1.92c0.127,0.63,0.325,1.25,0.571,1.84c0.246,0.601,0.542,1.172,0.906,1.703
			c0.354,0.542,0.768,1.044,1.221,1.497c0.453,0.453,0.955,0.867,1.498,1.221c0.532,0.354,1.102,0.66,1.694,0.906
			c0.601,0.246,1.221,0.443,1.841,0.561c0.639,0.128,1.29,0.197,1.93,0.197c0.639,0,1.29-0.069,1.92-0.197
			c0.63-0.118,1.25-0.315,1.84-0.561c0.601-0.246,1.172-0.551,1.703-0.906c0.542-0.354,1.044-0.768,1.497-1.221
			c0.454-0.453,0.867-0.955,1.221-1.497c0.354-0.532,0.66-1.103,0.906-1.703c0.246-0.591,0.443-1.21,0.561-1.84
			c0.128-0.631,0.197-1.281,0.197-1.92C275.692,234.437,275.623,233.786,275.495,233.147z"/>
	</g>
</g>
<g>
</g>
<g>
</g>
<g>
</g>
<g>
</g>
<g>
</g>
<g>
</g>
<g>
</g>
<g>
</g>
<g>
</g>
<g>
</g>
<g>
</g>
<g>
</g>
<g>
</g>
<g>
</g>
<g>
</g>
</svg>
