<?xml version="1.0" encoding="iso-8859-1"?>
<!-- Generator: Adobe Illustrator 19.0.0, SVG Export Plug-In . SVG Version: 6.00 Build 0)  -->
<svg version="1.1" id="Capa_1" xmlns="http://www.w3.org/2000/svg" xmlns:xlink="http://www.w3.org/1999/xlink" x="0px" y="0px"
	 viewBox="0 0 512 512" style="enable-background:new 0 0 512 512;" xml:space="preserve" fill="#5AE2B1">
<g>
	<g>
		<path d="M502.154,68.923H9.846C4.408,68.923,0,73.331,0,78.769v59.077v295.385c0,5.438,4.408,9.846,9.846,9.846h492.308
			c5.438,0,9.846-4.408,9.846-9.846V137.846V78.769C512,73.331,507.592,68.923,502.154,68.923z M492.308,384h-39.385
			c-5.438,0-9.846,4.408-9.846,9.846c0,5.438,4.408,9.846,9.846,9.846h39.385v19.692H19.692V187.077h39.385
			c5.438,0,9.846-4.408,9.846-9.846s-4.408-9.846-9.846-9.846H19.692v-19.692h472.615V384z M492.308,128H19.692V88.615h472.615V128z
			"/>
	</g>
</g>
<g>
	<g>
		<path d="M374.154,98.462h-19.692c-5.438,0-9.846,4.408-9.846,9.846s4.408,9.846,9.846,9.846h19.692
			c5.438,0,9.846-4.408,9.846-9.846S379.592,98.462,374.154,98.462z"/>
	</g>
</g>
<g>
	<g>
		<path d="M423.385,98.462h-19.692c-5.438,0-9.846,4.408-9.846,9.846s4.408,9.846,9.846,9.846h19.692
			c5.438,0,9.846-4.408,9.846-9.846S428.823,98.462,423.385,98.462z"/>
	</g>
</g>
<g>
	<g>
		<path d="M472.615,98.462h-19.692c-5.438,0-9.846,4.408-9.846,9.846s4.408,9.846,9.846,9.846h19.692
			c5.438,0,9.846-4.408,9.846-9.846S478.053,98.462,472.615,98.462z"/>
	</g>
</g>
<g>
	<g>
		<path d="M112.386,285.538l71.807-71.807c3.845-3.845,3.845-10.08,0-13.924s-10.08-3.845-13.925,0l-78.769,78.769
			c-3.845,3.845-3.845,10.08,0,13.925l78.769,78.769c1.923,1.923,4.443,2.884,6.962,2.884c2.52,0,5.04-0.961,6.962-2.884
			c3.845-3.845,3.845-10.08,0-13.925L112.386,285.538z"/>
	</g>
</g>
<g>
	<g>
		<path d="M420.501,278.576l-78.769-78.769c-3.845-3.845-10.079-3.845-13.925,0c-3.845,3.845-3.845,10.08,0,13.925l71.808,71.806
			l-71.807,71.807c-3.845,3.845-3.845,10.079,0,13.925c1.923,1.923,4.443,2.884,6.962,2.884s5.04-0.961,6.962-2.884l78.769-78.769
			C424.346,288.656,424.346,282.421,420.501,278.576z"/>
	</g>
</g>
<g>
	<g>
		<path d="M299.788,197.963c-4.864-2.432-10.779-0.461-13.211,4.403l-78.769,157.538c-2.432,4.864-0.461,10.778,4.403,13.211
			c1.414,0.707,2.915,1.042,4.395,1.042c3.612,0,7.089-1.995,8.814-5.445l78.769-157.538
			C306.623,206.308,304.652,200.395,299.788,197.963z"/>
	</g>
</g>
<g>
	<g>
		<path d="M98.274,175.311c-0.128-0.63-0.325-1.25-0.571-1.841c-0.246-0.601-0.551-1.172-0.906-1.703
			c-0.354-0.542-0.768-1.044-1.221-1.497c-0.453-0.453-0.955-0.866-1.497-1.221c-0.532-0.354-1.103-0.66-1.694-0.906
			c-0.601-0.246-1.221-0.443-1.851-0.561c-1.26-0.256-2.57-0.256-3.84,0c-0.63,0.118-1.25,0.315-1.841,0.561
			c-0.601,0.246-1.172,0.551-1.703,0.906c-0.542,0.354-1.044,0.768-1.497,1.221c-0.453,0.453-0.866,0.955-1.221,1.497
			c-0.354,0.532-0.66,1.103-0.906,1.703c-0.246,0.591-0.443,1.211-0.561,1.841c-0.128,0.63-0.197,1.28-0.197,1.92
			s0.069,1.29,0.197,1.92c0.118,0.63,0.315,1.25,0.561,1.841c0.246,0.601,0.551,1.172,0.906,1.703
			c0.354,0.542,0.768,1.044,1.221,1.497c0.453,0.453,0.955,0.866,1.497,1.221c0.532,0.354,1.103,0.66,1.703,0.906
			c0.591,0.246,1.211,0.443,1.841,0.561c0.63,0.128,1.28,0.197,1.92,0.197c0.64,0,1.29-0.069,1.92-0.197
			c0.63-0.118,1.25-0.315,1.851-0.561c0.591-0.246,1.162-0.551,1.694-0.906c0.542-0.354,1.044-0.768,1.497-1.221
			c0.453-0.453,0.866-0.955,1.221-1.497c0.354-0.532,0.66-1.103,0.906-1.703c0.246-0.591,0.443-1.211,0.571-1.841
			c0.128-0.63,0.187-1.28,0.187-1.92S98.402,175.941,98.274,175.311z"/>
	</g>
</g>
<g>
	<g>
		<path d="M433.034,391.926c-0.118-0.63-0.315-1.25-0.561-1.841c-0.246-0.601-0.551-1.172-0.906-1.703
			c-0.354-0.542-0.768-1.044-1.221-1.497c-0.453-0.453-0.955-0.866-1.497-1.221c-0.532-0.354-1.103-0.66-1.694-0.906
			c-0.601-0.246-1.221-0.443-1.851-0.561c-1.27-0.256-2.57-0.256-3.84,0c-0.63,0.118-1.25,0.315-1.841,0.561
			c-0.601,0.246-1.172,0.551-1.703,0.906c-0.542,0.354-1.044,0.768-1.497,1.221c-0.453,0.453-0.866,0.955-1.221,1.497
			c-0.354,0.532-0.66,1.103-0.906,1.703c-0.246,0.591-0.443,1.211-0.561,1.841c-0.128,0.63-0.197,1.28-0.197,1.92
			c0,0.64,0.069,1.29,0.197,1.92c0.118,0.63,0.315,1.25,0.561,1.841c0.246,0.601,0.551,1.172,0.906,1.703
			c0.354,0.542,0.768,1.044,1.221,1.497c0.453,0.453,0.955,0.866,1.497,1.221c0.532,0.354,1.103,0.66,1.703,0.906
			c0.591,0.246,1.211,0.443,1.841,0.571c0.63,0.128,1.28,0.187,1.92,0.187s1.29-0.059,1.92-0.187c0.63-0.128,1.25-0.325,1.851-0.571
			c0.591-0.246,1.162-0.551,1.694-0.906c0.542-0.354,1.044-0.768,1.497-1.221c0.453-0.453,0.866-0.955,1.221-1.497
			c0.354-0.532,0.66-1.103,0.906-1.703c0.246-0.591,0.443-1.211,0.561-1.841c0.128-0.63,0.197-1.28,0.197-1.92
			C433.231,393.206,433.162,392.556,433.034,391.926z"/>
	</g>
</g>
<g>
</g>
<g>
</g>
<g>
</g>
<g>
</g>
<g>
</g>
<g>
</g>
<g>
</g>
<g>
</g>
<g>
</g>
<g>
</g>
<g>
</g>
<g>
</g>
<g>
</g>
<g>
</g>
<g>
</g>
</svg>
