<?xml version="1.0" encoding="utf-8"?>
<!-- Generator: Adobe Illustrator 16.0.4, SVG Export Plug-In . SVG Version: 6.00 Build 0)  -->
<!DOCTYPE svg PUBLIC "-//W3C//DTD SVG 1.1 Tiny//EN" "http://www.w3.org/Graphics/SVG/1.1/DTD/svg11-tiny.dtd">
<svg version="1.1" baseProfile="tiny" id="Layer_1" xmlns="http://www.w3.org/2000/svg" xmlns:xlink="http://www.w3.org/1999/xlink"
	 x="0px" y="0px" width="58.666px" height="72px" viewBox="0 0 58.666 72" xml:space="preserve">
<path fill="#FFFFFF" d="M37.771,27.67c-1.435-0.51-3.008-14.654-4.741-16.945c-0.35-0.463-1.415-1.061-2.003-1.061
	c-0.637,0-1.291,0.178-2.229,1.885c-0.86,1.55-2.646,15.734-4.227,16.365c-6.896,2.752-11.777,9.5-11.777,17.385
	c0,10.328,8.373,18.703,18.701,18.703s18.708-8.375,18.708-18.703C50.203,37.166,45.013,30.244,37.771,27.67z M36.078,46.951
	c-2.72,0-4.927-2.202-4.927-4.926c0-2.719,2.207-4.924,4.927-4.924c2.724,0,4.925,2.205,4.925,4.924
	C41.003,44.749,38.802,46.951,36.078,46.951z"/>
</svg>
