<?xml version="1.0" encoding="utf-8"?>
<!-- Generator: Adobe Illustrator 16.0.4, SVG Export Plug-In . SVG Version: 6.00 Build 0)  -->
<!DOCTYPE svg PUBLIC "-//W3C//DTD SVG 1.1 Tiny//EN" "http://www.w3.org/Graphics/SVG/1.1/DTD/svg11-tiny.dtd">
<svg version="1.1" baseProfile="tiny" id="Layer_1" xmlns="http://www.w3.org/2000/svg" xmlns:xlink="http://www.w3.org/1999/xlink"
	 x="0px" y="0px" width="411.316px" height="179px" viewBox="0 0 411.316 179" xml:space="preserve">
<rect x="-0.684" y="-1" fill="#333333" width="411" height="180"/>
<path fill="#17BC8D" d="M208.131,89.725c0,17.993-14.598,32.582-32.588,32.582c-17.994,0-32.578-14.589-32.578-32.582
	c0-13.736,8.504-25.491,20.516-30.284c2.754-1.1,5.863-25.809,7.363-28.509c1.633-2.973,2.773-3.283,3.881-3.283
	c1.023,0,2.881,1.041,3.49,1.848c3.018,3.992,5.76,28.631,8.26,29.518C199.09,63.5,208.131,75.557,208.131,89.725z"/>
<path fill="#333333" d="M192.105,84.022c0,4.745-3.836,8.581-8.58,8.581c-4.736,0-8.582-3.836-8.582-8.581
	c0-4.735,3.846-8.576,8.582-8.576C188.27,75.446,192.105,79.287,192.105,84.022z"/>
<path fill="#17BC8D" d="M48.637,61.238c2.579-0.646,5.99-1.33,10.216-2.057c4.24-0.727,9.124-1.09,14.7-1.09
	c4.031,0,7.418,0.549,10.158,1.638c2.743,1.083,5.034,2.677,6.891,4.774c0.552-0.404,1.449-0.968,2.658-1.693
	c1.212-0.727,2.698-1.428,4.483-2.113c1.764-0.688,3.743-1.291,5.921-1.815c2.175-0.524,4.515-0.79,7.001-0.79
	c4.84,0,8.792,0.709,11.867,2.115c3.052,1.416,5.459,3.41,7.188,5.99c1.727,2.579,2.901,5.645,3.501,9.191
	c0.609,3.548,0.911,7.412,0.911,11.606v35.312h-11.244V89.413c0-3.702-0.186-6.894-0.541-9.548c-0.37-2.668-1.059-4.879-2.062-6.653
	c-1.003-1.774-2.384-3.088-4.113-3.934c-1.726-0.847-3.962-1.272-6.702-1.272c-3.802,0-6.911,0.507-9.377,1.521
	c-2.467,1.007-4.135,1.911-5.021,2.718c0.644,2.096,1.127,4.395,1.449,6.889c0.321,2.499,0.486,5.121,0.486,7.862v35.312H85.763
	V89.413c0-3.702-0.209-6.894-0.6-9.548c-0.414-2.668-1.106-4.879-2.12-6.653s-2.384-3.088-4.123-3.934
	c-1.727-0.847-3.915-1.272-6.59-1.272c-1.127,0-2.325,0.047-3.617,0.127c-1.287,0.08-2.534,0.178-3.685,0.299
	c-1.175,0.121-2.247,0.264-3.202,0.42c-0.979,0.168-1.613,0.288-1.936,0.369v53.086H48.637V61.238z"/>
<path fill="#FFFFFF" d="M276.838,94.344c0,5.246-0.691,10.092-2.062,14.537c-1.373,4.439-3.4,8.259-6.072,11.461
	s-5.932,5.69-9.791,7.465c-3.871,1.779-8.293,2.673-13.268,2.673c-4.012,0-7.535-0.536-10.598-1.601
	c-3.064-1.072-5.371-2.092-6.867-3.066v27.734h-12.404V61.682c2.936-0.714,6.6-1.486,11-2.332c4.398-0.848,9.49-1.274,15.275-1.274
	c5.318,0,10.125,0.848,14.398,2.534c4.26,1.693,7.9,4.09,10.918,7.199c3.031,3.117,5.367,6.912,7.004,11.398
	C276.02,83.701,276.838,88.746,276.838,94.344z M263.912,94.344c0-8.086-2.004-14.312-6.014-18.666
	c-3.984-4.355-9.33-6.531-15.988-6.531c-3.732,0-6.646,0.132-8.73,0.402c-2.096,0.266-3.756,0.57-5,0.934v43.732
	c1.496,1.238,3.686,2.441,6.521,3.593c2.855,1.157,5.967,1.739,9.34,1.739c3.562,0,6.6-0.645,9.135-1.939
	c2.533-1.285,4.609-3.065,6.199-5.334c1.598-2.265,2.752-4.931,3.465-7.994C263.545,101.209,263.912,97.896,263.912,94.344z"/>
<path fill="#FFFFFF" d="M304.707,128.879h-12.406V59.537h12.406V128.879z"/>
<path fill="#FFFFFF" d="M344.178,119.939c5.07,0,8.822-0.662,11.266-1.993c2.441-1.336,3.664-3.468,3.664-6.405
	c0-3.017-1.199-5.42-3.596-7.199c-2.408-1.779-6.357-3.771-11.875-6.002c-2.66-1.064-5.219-2.146-7.66-3.266
	c-2.443-1.111-4.562-2.418-6.338-3.934c-1.773-1.503-3.201-3.328-4.26-5.466c-1.072-2.13-1.604-4.75-1.604-7.866
	c0-6.129,2.271-10.996,6.799-14.602c4.539-3.594,10.699-5.396,18.533-5.396c1.959,0,3.918,0.114,5.863,0.327
	c1.959,0.231,3.791,0.495,5.473,0.807s3.178,0.646,4.469,0.996c1.291,0.357,2.281,0.668,2.994,0.934l-2.258,10.667
	c-1.336-0.709-3.432-1.44-6.277-2.195c-2.846-0.753-6.268-1.134-10.264-1.134c-3.467,0-6.498,0.686-9.066,2.067
	c-2.578,1.376-3.871,3.53-3.871,6.462c0,1.515,0.289,2.846,0.867,4.002c0.576,1.153,1.473,2.201,2.672,3.135
	s2.695,1.796,4.469,2.598c1.775,0.8,3.916,1.647,6.391,2.534c3.285,1.243,6.234,2.464,8.803,3.668
	c2.568,1.198,4.781,2.599,6.6,4.199c1.822,1.601,3.227,3.531,4.191,5.8c0.994,2.27,1.477,5.045,1.477,8.335
	c0,6.397-2.373,11.247-7.131,14.53c-4.756,3.289-11.531,4.937-20.33,4.937c-6.141,0-10.941-0.519-14.398-1.538
	c-3.469-1.02-5.828-1.798-7.072-2.334l2.268-10.665c1.418,0.534,3.686,1.336,6.795,2.401
	C334.893,119.408,339.018,119.939,344.178,119.939z"/>
</svg>
